<svg xmlns="http://www.w3.org/2000/svg" width="44" height="44" viewBox="0 0 44 44" fill="none">
<path d="M28.3957 26.8665C26.6337 25.3003 24.3581 24.4352 22.0006 24.4352C19.6431 24.4352 17.3676 25.3003 15.6055 26.8665M33.5059 21.7563C30.3852 18.8382 26.2723 17.2148 21.9998 17.2148C17.7273 17.2148 13.6144 18.8382 10.4937 21.7563" stroke="#FFD28D" stroke-linecap="round" stroke-linejoin="round"></path>
<path d="M38.0476 16.1119C33.6308 12.1717 27.9186 9.99414 21.9997 9.99414C16.0807 9.99414 10.3685 12.1717 5.95166 16.1119" stroke="#FFD28D" stroke-linecap="round" stroke-linejoin="round"></path>
<path d="M21.9999 35.6892C21.4701 35.6892 20.9522 35.5321 20.5117 35.2378C20.0712 34.9434 19.7279 34.5251 19.5252 34.0356C19.3224 33.5462 19.2694 33.0076 19.3728 32.488C19.4761 31.9684 19.7312 31.4912 20.1058 31.1166C20.4804 30.742 20.9577 30.4869 21.4773 30.3835C21.9969 30.2801 22.5355 30.3332 23.0249 30.5359C23.5144 30.7387 23.9327 31.082 24.227 31.5225C24.5213 31.963 24.6784 32.4808 24.6784 33.0106C24.6784 33.721 24.3962 34.4023 23.8939 34.9046C23.3916 35.407 22.7103 35.6892 21.9999 35.6892Z" fill="#FFD28D"></path>
</svg>