<svg xmlns="http://www.w3.org/2000/svg" width="42" height="42" viewBox="0 0 42 42" fill="none">
<path d="M9.85889 35.6581C11.2697 32.3651 12.1461 31.0308 16.5844 28.0944C17.7698 24.8329 20.0187 23.0383 21.94 21.5322C22.8454 17.9346 22.9696 14.1004 22.2668 12.5449C22.0881 13.5541 20.6892 14.8143 19.0078 15.6907C19.7319 17.4138 20.9921 18.9769 22.3417 19.6449" stroke="#FFD28D" stroke-linecap="round" stroke-linejoin="round"></path>
<path d="M30.4169 35.8617C29.7489 31.9782 29.0129 29.4433 31.7111 27.3986C28.1952 27.9304 25.8237 24.4145 25.8237 24.4145C22.5945 26.2541 20.3864 28.4614 18.0975 29.5658C14.5807 34.0629 13.3749 33.777 9.85901 35.6575M9.85901 35.6575C9.85901 35.6575 10.1653 36.9041 10.07 37.5788H7.65771C8.42778 36.9857 9.32719 36.7815 9.85901 35.6575ZM22.3418 19.6443C20.4613 19.3312 18.1511 17.9135 17.0338 16.4832M30.3199 11.9121C30.77 15.7693 27.882 17.3273 28.1543 20.5982" stroke="#FFD28D" stroke-linecap="round" stroke-linejoin="round"></path>
<path d="M27.3075 8.95866C26.9587 9.30243 26.5945 9.53388 25.8967 9.53388C25.199 9.53388 25.0501 7.96821 25.0662 7.16836C25.0824 6.36851 25.1786 4.41142 27.3339 4.3927C28.7677 4.37994 29.1353 5.34061 28.9923 7.09858C28.8494 8.85655 28.7941 9.69299 29.2986 10.3082C30.5665 10.0495 31.3025 10.6486 31.8471 11.4399C32.3917 12.2312 32.9516 14.2053 34.2467 15.9097C34.3683 19.3848 33.3872 21.1564 31.0158 22.5468C32.3789 21.2653 32.7465 18.499 32.5695 16.7947C32.5695 16.7947 30.3342 15.092 30.3053 13.9228M28.1542 20.5974C30.689 22.083 32.11 23.6776 34.256 25.8849C34.9308 29.2783 31.4387 29.1694 30.4167 35.8609M30.4167 35.8609C31.2617 36.4336 31.9424 37.3466 33.714 37.578H29.1361C29.0264 36.6922 30.4167 35.8609 30.4167 35.8609ZM24.434 10.3235C24.434 10.3235 22.9662 10.7575 22.2787 11.0442C20.2535 11.8883 18.3968 13.4021 17.0337 16.4815" stroke="#FFD28D" stroke-linecap="round" stroke-linejoin="round"></path>
</svg>