<svg xmlns="http://www.w3.org/2000/svg" width="61" height="61" viewBox="0 0 61 61" fill="none">
<circle cx="30.0161" cy="30.2969" r="29.6985" stroke="#FFD28D" stroke-opacity="0.3" stroke-width="0.603092"></circle>
<path d="M36.8217 31.6862H35.5717C34.835 31.6862 34.1284 31.3935 33.6075 30.8726C33.0865 30.3517 32.7939 29.6451 32.7939 28.9084C32.7939 29.6451 32.5012 30.3517 31.9803 30.8726C31.4594 31.3935 30.7528 31.6862 30.0161 31.6862C29.2794 31.6862 28.5729 31.3935 28.0519 30.8726C27.531 30.3517 27.2383 29.6451 27.2383 28.9084C27.2383 29.6451 26.9457 30.3517 26.4247 30.8726C25.9038 31.3935 25.1973 31.6862 24.4606 31.6862H23.2106M20.9883 19.1862H25.155M25.4564 42.7973H34.5758C35.5181 42.7973 36.4449 43.037 37.269 43.4937C38.0931 43.9505 38.7876 44.6094 39.2869 45.4084L39.3911 45.5751H42.5161V15.0195H17.5161V45.5751H20.6411L20.7453 45.4084C21.2447 44.6094 21.9391 43.9505 22.7632 43.4937C23.5874 43.037 24.5141 42.7973 25.4564 42.7973ZM30.0161 37.2418C28.1743 37.2418 26.408 36.5101 25.1056 35.2078C23.8033 33.9054 23.0717 32.1391 23.0717 30.2973C23.0717 28.4555 23.8033 26.6892 25.1056 25.3868C26.408 24.0845 28.1743 23.3529 30.0161 23.3529C31.8579 23.3529 33.6242 24.0845 34.9266 25.3868C36.2289 26.6892 36.9606 28.4555 36.9606 30.2973C36.9606 32.1391 36.2289 33.9054 34.9266 35.2078C33.6242 36.5101 31.8579 37.2418 30.0161 37.2418Z" stroke="#FFD28D"></path>
</svg>