<svg xmlns="http://www.w3.org/2000/svg" width="41" height="41" viewBox="0 0 41 41" fill="none">
<g clip-path="url(#clip0_1372_310)">
<path d="M11.6049 24.7437C11.6049 26.473 10.203 27.875 8.47354 27.875C6.74424 27.875 5.34229 26.473 5.34229 24.7437C5.34229 23.0143 6.74424 21.6123 8.47354 21.6123C10.203 21.6123 11.6049 23.0143 11.6049 24.7437Z" stroke="#FFD28D" stroke-miterlimit="10" stroke-linecap="round" stroke-linejoin="round"></path>
<path d="M11.605 25.9961H29.7665" stroke="#FFD28D" stroke-miterlimit="10" stroke-linecap="round" stroke-linejoin="round"></path>
<path d="M8.91639 24.3019L8.03076 25.1875" stroke="#FFD28D" stroke-miterlimit="10" stroke-linecap="round" stroke-linejoin="round"></path>
<path d="M36.0289 24.7437C36.0289 26.473 34.6271 27.875 32.8976 27.875C31.1683 27.875 29.7664 26.473 29.7664 24.7437C29.7664 23.0143 31.1683 21.6123 32.8976 21.6123C34.6271 21.6123 36.0289 23.0143 36.0289 24.7437Z" stroke="#FFD28D" stroke-miterlimit="10" stroke-linecap="round" stroke-linejoin="round"></path>
<path d="M32.4548 24.3019L33.3405 25.1875" stroke="#FFD28D" stroke-miterlimit="10" stroke-linecap="round" stroke-linejoin="round"></path>
<path d="M5.34232 25.3698L2.32115 24.5066C1.51459 24.2762 0.958496 23.539 0.958496 22.7002V18.9604C0.958496 18.3288 1.42889 17.7959 2.05568 17.7176L4.37193 17.428C5.42865 17.2959 6.45529 16.9852 7.40779 16.5088L10.3799 15.0228C11.5973 14.4141 12.9398 14.0972 14.3009 14.0972H19.8805C21.429 14.0972 22.9451 14.5387 24.2515 15.37L29.1402 18.481C29.1402 18.481 34.8172 18.481 38.3588 20.1257C39.2358 20.533 39.7866 21.423 39.7866 22.3901V24.4691C39.7866 25.4386 39.2258 25.9961 38.5341 25.9961" stroke="#FFD28D" stroke-miterlimit="10" stroke-linecap="round" stroke-linejoin="round"></path>
<path d="M12.8575 18.4805H11.6495C10.819 18.4805 10.0225 18.1505 9.43527 17.5633L8.47363 16.6017" stroke="#FFD28D" stroke-miterlimit="10" stroke-linecap="round" stroke-linejoin="round"></path>
<path d="M29.1402 18.4805H15.3625" stroke="#FFD28D" stroke-miterlimit="10" stroke-linecap="round" stroke-linejoin="round"></path>
<path d="M14.1099 23.4922H27.2613" stroke="#FFD28D" stroke-miterlimit="10" stroke-linecap="round" stroke-linejoin="round"></path>
<path d="M0.958496 20.3594H2.211" stroke="#FFD28D" stroke-miterlimit="10" stroke-linecap="round" stroke-linejoin="round"></path>
<path d="M37.908 21.6133H39.4214" stroke="#FFD28D" stroke-miterlimit="10" stroke-linecap="round" stroke-linejoin="round"></path>
<path d="M17.8674 18.4805V14.0966" stroke="#FFD28D" stroke-miterlimit="10" stroke-linecap="round" stroke-linejoin="round"></path>
<path d="M10.6655 18.2266L11.4808 14.6252" stroke="#FFD28D" stroke-miterlimit="10" stroke-linecap="round" stroke-linejoin="round"></path>
</g>
<defs>
<clipPath id="clip0_1372_310">
<rect width="40" height="40" fill="white" transform="translate(0.372559 0.986328)"></rect>
</clipPath>
</defs>
</svg>