<svg xmlns="http://www.w3.org/2000/svg" width="34" height="34" viewBox="0 0 34 34" fill="none">
<g clip-path="url(#clip0_1372_340)">
<path d="M15.3876 16.5515H10.3904C10.2124 16.5515 10.0681 16.6958 10.0681 16.8738V21.5487H5.39304C5.21509 21.5487 5.07078 21.6931 5.07078 21.871V31.8655C5.07078 32.0435 5.21509 32.1878 5.39304 32.1878H15.3876C15.5656 32.1878 15.7099 32.0435 15.7099 31.8655V16.8738C15.7099 16.6958 15.5656 16.5515 15.3876 16.5515ZM12.4806 17.196H13.2972V17.9771L13.0335 17.8447C12.9426 17.7991 12.8354 17.7991 12.7444 17.8447L12.4806 17.9771V17.196ZM11.8361 17.196V18.4994C11.8361 18.6112 11.894 18.7149 11.9892 18.7737C12.0844 18.8324 12.2031 18.8376 12.3029 18.7874L12.889 18.4933L13.4749 18.7874C13.5206 18.8103 13.5701 18.8217 13.6195 18.8217C13.6784 18.8217 13.737 18.8056 13.7887 18.7737C13.8838 18.7149 13.9418 18.6112 13.9418 18.4994V17.196H15.0653V21.5487H10.7126V17.196H11.8362H11.8361ZM12.4806 27.1905H13.2972V27.9716L13.0335 27.8392C12.9425 27.7935 12.8354 27.7935 12.7444 27.8392L12.4806 27.9716V27.1905ZM10.7126 26.546V22.1933H11.8361V23.4967C11.8361 23.6084 11.894 23.7122 11.9892 23.7709C12.0409 23.8028 12.0996 23.8189 12.1584 23.8189C12.2078 23.8189 12.2573 23.8076 12.3029 23.7847L12.8889 23.4907L13.4749 23.7847C13.5748 23.8348 13.6936 23.8296 13.7886 23.7709C13.8838 23.7122 13.9417 23.6084 13.9417 23.4967V22.1933H15.0653V26.546H10.7126ZM12.4806 22.1933H13.2972V22.9743L13.0335 22.842C12.9425 22.7963 12.8354 22.7963 12.7444 22.842L12.4806 22.9744V22.1933ZM7.48339 22.1933H8.29994V22.9743L8.03627 22.842C7.94526 22.7963 7.83814 22.7963 7.74719 22.842L7.48339 22.9744V22.1933ZM6.83886 22.1933V23.4967C6.83886 23.6084 6.89673 23.7122 6.99193 23.7709C7.04362 23.8028 7.10234 23.8189 7.16112 23.8189C7.21056 23.8189 7.26006 23.8076 7.30562 23.7847L7.8917 23.4907L8.47764 23.7847C8.57754 23.8348 8.69633 23.8296 8.7914 23.7709C8.88653 23.7122 8.94447 23.6084 8.94447 23.4967V22.1933H10.068V26.546H5.71531V22.1933H6.83886ZM7.48339 27.1905H8.29994V27.9716L8.03627 27.8392C7.94526 27.7935 7.83814 27.7935 7.74719 27.8392L7.48339 27.9716V27.1905ZM5.71531 27.1905H6.83886V28.4939C6.83886 28.6057 6.89673 28.7095 6.99193 28.7681C7.04362 28.8001 7.10234 28.8162 7.16112 28.8162C7.21056 28.8162 7.26006 28.8048 7.30562 28.7819L7.8917 28.4879L8.47764 28.7819C8.57754 28.8321 8.69633 28.8268 8.7914 28.7681C8.88653 28.7095 8.94447 28.6057 8.94447 28.4939V27.1905H10.068V31.5432H5.71531V27.1905ZM10.7126 31.5432V27.1905H11.8361V28.4939C11.8361 28.6057 11.894 28.7095 11.9892 28.7681C12.0409 28.8001 12.0996 28.8162 12.1584 28.8162C12.2078 28.8162 12.2573 28.8048 12.3029 28.7819L12.8889 28.4879L13.4749 28.7819C13.5748 28.8321 13.6936 28.8268 13.7886 28.7681C13.8838 28.7095 13.9417 28.6057 13.9417 28.4939V27.1905H15.0653V31.5432H10.7126ZM31.8465 15.0648C32.2929 15.0648 32.656 14.7016 32.656 14.2551V9.25141C32.656 8.80495 32.2929 8.44175 31.8465 8.44175H31.4772L16.6639 2.42989C16.5862 2.39837 16.4992 2.39837 16.4215 2.42989L1.60829 8.44175H1.23897C0.792572 8.44175 0.429443 8.80495 0.429443 9.25141V14.2551C0.429443 14.7016 0.792572 15.0648 1.23897 15.0648H1.34893V31.8656C1.34893 32.0436 1.49324 32.1878 1.6712 32.1878H3.62522C3.80318 32.1878 3.94749 32.0436 3.94749 31.8656V15.0648H29.138V17.0036C27.9896 16.2787 26.6305 15.8586 25.1751 15.8586C21.0696 15.8586 17.7296 19.1986 17.7296 23.3041C17.7296 27.4095 21.0696 30.7496 25.1751 30.7496C26.6305 30.7496 27.9896 30.3294 29.138 29.6045V31.8656C29.138 32.0437 29.2823 32.1879 29.4602 32.1879H31.4143C31.5922 32.1879 31.7365 32.0437 31.7365 31.8656V26.82C32.3002 25.7722 32.6205 24.575 32.6205 23.3041C32.6205 22.0333 32.3002 20.836 31.7365 19.7883V15.0648H31.8465V15.0648ZM16.5427 3.07629L29.7633 8.44175H3.32216L16.5427 3.07629ZM1.07397 14.2551V9.25141C1.07397 9.16189 1.14951 9.08629 1.23897 9.08629H31.8465C31.9359 9.08629 32.0115 9.16189 32.0115 9.25141V14.2551C32.0115 14.3446 31.9359 14.4202 31.8465 14.4202H1.23897C1.14951 14.4202 1.07397 14.3446 1.07397 14.2551ZM3.30296 31.5433H1.99346V15.0648H3.30296V31.5433ZM31.092 31.5433H29.7825V29.1486C30.2725 28.7615 30.7126 28.314 31.092 27.8178V31.5433ZM25.1751 30.105C21.425 30.105 18.3741 27.0541 18.3741 23.3041C18.3741 19.554 21.425 16.5031 25.1751 16.5031C28.9251 16.5031 31.976 19.554 31.976 23.3041C31.976 27.0541 28.9251 30.105 25.1751 30.105ZM31.092 18.7903C30.7126 18.2941 30.2725 17.8466 29.7825 17.4595V15.0648H31.092V18.7903ZM20.8876 10.6513H12.1978C12.0199 10.6513 11.8755 10.7956 11.8755 10.9735V12.5331C11.8755 12.7111 12.0199 12.8554 12.1978 12.8554H20.8876C21.0656 12.8554 21.2099 12.7111 21.2099 12.5331V10.9735C21.2099 10.7956 21.0656 10.6513 20.8876 10.6513ZM20.5654 12.2108H12.5201V11.2958H20.5654V12.2108ZM28.5398 18.2711H24.4383C24.2603 18.2711 24.116 18.4154 24.116 18.5934V22.3726H23.758C23.58 22.3726 23.4357 22.5168 23.4357 22.6949V26.7964C23.4357 26.851 23.4506 26.9016 23.4746 26.9467C23.3751 26.8637 23.2597 26.7994 23.134 26.758V20.8057C23.134 20.163 22.6111 19.6402 21.9684 19.6402H21.1756C20.9976 19.6402 20.8533 19.7845 20.8533 19.9624C20.8533 20.1404 20.9976 20.2847 21.1756 20.2847H21.9684C22.2557 20.2847 22.4894 20.5184 22.4894 20.8057V26.758C22.0753 26.894 21.7751 27.2837 21.7751 27.7427C21.7751 28.3142 22.2401 28.7792 22.8117 28.7792C23.2707 28.7792 23.6603 28.4791 23.7963 28.065H28.177C28.3549 28.065 28.4992 27.9207 28.4992 27.7427C28.4992 27.5647 28.3549 27.4204 28.177 27.4204H23.7963C23.755 27.2946 23.6906 27.1793 23.6076 27.0798C23.6527 27.1038 23.7033 27.1187 23.758 27.1187H27.8595C28.0374 27.1187 28.1817 26.9744 28.1817 26.7964V23.0171H28.5398C28.7177 23.0171 28.862 22.8729 28.862 22.6949V18.5934C28.862 18.4154 28.7177 18.2711 28.5398 18.2711ZM22.8116 28.1347C22.5955 28.1347 22.4196 27.9588 22.4196 27.7427C22.4196 27.5266 22.5955 27.3506 22.8116 27.3506C23.0278 27.3506 23.2037 27.5265 23.2037 27.7427C23.2037 27.9589 23.0278 28.1347 22.8116 28.1347ZM26.2117 18.9156H26.7663V19.4053L26.6335 19.3387C26.5426 19.293 26.4354 19.293 26.3444 19.3387L26.2116 19.4053V18.9156H26.2117ZM27.5371 26.4741H24.0802V23.0171H24.8868V24.0291C24.8868 24.1409 24.9448 24.2447 25.0399 24.3033C25.1351 24.3621 25.2538 24.3672 25.3537 24.3171L25.8087 24.0888L26.2637 24.3171C26.3094 24.34 26.3589 24.3514 26.4083 24.3514C26.4672 24.3514 26.5258 24.3353 26.5775 24.3033C26.6726 24.2447 26.7306 24.1409 26.7306 24.0291V23.0171H27.5372V26.4741H27.5371ZM25.5313 23.0171H26.0859V23.5068L25.9531 23.4402C25.8622 23.3945 25.755 23.3945 25.6641 23.4402L25.5313 23.5068V23.0171ZM28.2174 22.3726H24.7605V18.9156H25.5671V19.9276C25.5671 20.0394 25.6251 20.1432 25.7202 20.2019C25.8154 20.2607 25.9341 20.2659 26.034 20.2157L26.4891 19.9873L26.9441 20.2157C26.9897 20.2385 27.0392 20.2499 27.0887 20.2499C27.1475 20.2499 27.2062 20.2338 27.2579 20.2019C27.353 20.1432 27.4109 20.0394 27.4109 19.9276V18.9156H28.2176V22.3726H28.2174Z" fill="#FFD28D"></path>
</g>
<defs>
<clipPath id="clip0_1372_340">
<rect width="33" height="33" fill="white" transform="translate(0.0427246 0.796875)"></rect>
</clipPath>
</defs>
</svg>