<svg xmlns="http://www.w3.org/2000/svg" width="40" height="40" viewBox="0 0 40 40" fill="none">
<path d="M33.5 25.5V24H34C34.5523 24 35 23.5523 35 23V22.5C35 21.3954 34.1045 20.5 33 20.5H29.755C29.1102 19.2713 27.8376 18.5012 26.45 18.5H20.95C19.8901 18.447 18.857 18.8433 18.1045 19.5915C18.0235 19.5305 17.943 19.4685 17.868 19.403C16.3662 18.143 14.4601 17.4673 12.5 17.5H10.5V8.50002C10.5 8.22388 10.7239 8.00002 11 8.00002H13.67C13.8042 7.99972 13.9329 8.05384 14.0265 8.15002L14.737 8.86052C14.261 9.47227 14.0017 10.2249 14 11C14 11.5523 14.4477 12 15 12H20C20.5111 11.9942 20.9388 11.6105 21 11.103C21.0268 9.31649 19.7245 7.78718 17.9565 7.52902C17.845 7.51502 17.7335 7.50802 17.622 7.50452L16.15 6.02652C15.4938 5.36659 14.6006 4.99691 13.67 5.00002H11C9.06791 5.00222 7.5022 6.56794 7.5 8.50002V17.5H7C5.89543 17.5 5 18.3954 5 19.5V20C5 20.5523 5.44771 21 6 21H6.5V25.5C6.50223 27.7151 7.63304 29.7764 9.5 30.9685V32H9C8.17157 32 7.5 32.6716 7.5 33.5V34H5.5C5.22386 34 5 34.2239 5 34.5C5 34.7761 5.22386 35 5.5 35H34.5C34.7761 35 35 34.7761 35 34.5C35 34.2239 34.7761 34 34.5 34H32.5V33.5C32.5 32.6716 31.8284 32 31 32H30.5V30.9685C32.3669 29.7764 33.4977 27.7151 33.5 25.5ZM34 22.5V23H30.2V22.25C30.1999 21.9981 30.1743 21.7468 30.1235 21.5H33C33.5523 21.5 34 21.9477 34 22.5ZM28.9885 21.1915C29.1282 21.5269 29.2001 21.8867 29.2 22.25V28C29.2 28.2761 28.9761 28.5 28.7 28.5H25C24.7238 28.5 24.5 28.2761 24.5 28V22.25C24.5006 21.2055 24.0642 20.2083 23.2965 19.5H26.45C27.56 19.4999 28.5612 20.167 28.9885 21.1915ZM22.5 22.25C22.5017 22.0194 22.4563 21.7909 22.3665 21.5785C22.0976 20.9269 21.4629 20.5013 20.758 20.5C20.156 20.4928 19.5618 20.3631 19.0115 20.119C19.8343 19.4477 20.9701 19.3101 21.9294 19.7655C22.8887 20.221 23.5001 21.1881 23.5 22.25V28C23.5016 28.1707 23.5328 28.3399 23.592 28.5H23C22.7238 28.5 22.5 28.2761 22.5 28V22.25ZM20 11H15C15 9.6193 16.1193 8.50002 17.5 8.50002C18.8807 8.50002 20 9.6193 20 11ZM8.5 8.50002C8.50165 7.11999 9.61997 6.00167 11 6.00002H13.67C14.3345 5.99803 14.9722 6.26198 15.441 6.73302L16.391 7.68552C16.0567 7.79658 15.7411 7.95757 15.455 8.16302L14.7335 7.44152C14.4523 7.15811 14.0693 6.99911 13.67 7.00002H11C10.1716 7.00002 9.5 7.67159 9.5 8.50002V17.5H8.5V8.50002ZM6 19.5C6 18.9477 6.44771 18.5 7 18.5H12.5C14.2185 18.4674 15.8911 19.0555 17.211 20.1565C18.1433 20.963 19.3188 21.434 20.55 21.4945C20.7958 21.4727 21.0413 21.5391 21.2425 21.682C21.4063 21.8253 21.5001 22.0324 21.5 22.25V23H21C19.2811 23.031 17.6085 22.4427 16.2875 21.3425C15.2906 20.4773 14.015 20.0006 12.695 20H6V19.5ZM7.5 25.5V21H12.695C13.7738 21.0005 14.8163 21.3898 15.6315 22.0965C17.1338 23.356 19.0398 24.0318 21 24H21.5V28C21.5 28.8284 22.1716 29.5 23 29.5H28.7C29.5284 29.5 30.2 28.8284 30.2 28V24H32.5V25.5C32.4964 28.5361 30.0361 30.9964 27 31H13C9.96391 30.9964 7.50358 28.5361 7.5 25.5ZM14.091 32H25.909C26.526 32.4895 26.9103 33.2146 26.969 34H13.0305C13.0896 33.2146 13.4741 32.4896 14.091 32ZM8.5 34V33.5C8.5 33.2239 8.72385 33 9 33H10C10.2761 33 10.5 32.7761 10.5 32.5V31.5C11.2103 31.7946 11.9675 31.9598 12.736 31.988C12.3222 32.5825 12.0766 33.2776 12.025 34H8.5ZM30 33H31C31.2761 33 31.5 33.2239 31.5 33.5V34H27.9775C27.9247 33.277 27.6782 32.5814 27.264 31.9865C28.0323 31.9588 28.7896 31.7941 29.5 31.5V32.5C29.5 32.7761 29.7238 33 30 33Z" fill="#FFD28D"></path>
<path d="M13.4995 29.5059C13.4995 29.2297 13.2757 29.0059 12.9995 29.0059C11.0674 29.0037 9.50172 27.4379 9.49951 25.5059C9.49951 25.2297 9.27565 25.0059 8.99951 25.0059C8.72337 25.0059 8.49951 25.2297 8.49951 25.5059C8.50227 27.99 10.5154 30.0031 12.9995 30.0059C13.2757 30.0059 13.4995 29.782 13.4995 29.5059Z" fill="#FFD28D"></path>
<path d="M17.0007 13.498V15.998C17.0007 16.2742 17.2246 16.498 17.5007 16.498C17.7769 16.498 18.0007 16.2742 18.0007 15.998V13.498C18.0007 13.2219 17.7769 12.998 17.5007 12.998C17.2246 12.998 17.0007 13.2219 17.0007 13.498Z" fill="#FFD28D"></path>
<path d="M15.0372 13.3125L14.0372 15.8125C13.9345 16.0691 14.0592 16.3603 14.3157 16.463C14.5722 16.5658 14.8635 16.4411 14.9662 16.1845L15.9662 13.6845C16.0689 13.428 15.9442 13.1368 15.6877 13.034C15.4312 12.9313 15.1399 13.056 15.0372 13.3125Z" fill="#FFD28D"></path>
<path d="M19.9633 13.3125C19.8606 13.056 19.5693 12.9313 19.3128 13.034C19.0562 13.1368 18.9316 13.428 19.0343 13.6845L20.0343 16.1845C20.1007 16.3505 20.2507 16.4684 20.4276 16.4938C20.6046 16.5192 20.7816 16.4483 20.8921 16.3078C21.0026 16.1673 21.0297 15.9785 20.9633 15.8125L19.9633 13.3125Z" fill="#FFD28D"></path>
</svg>