
<svg width="32" height="32" viewBox="0 0 32 32" fill="none"
    xmlns="http://www.w3.org/2000/svg">
    <path
        d="M15.6669 12.2001C16.4169 11.0901 17.0669 10.1301 17.6669 9.2001C18.2669 8.2701 18.9269 7.25009 19.5469 6.26009C20.1669 5.27009 20.7569 4.26009 21.3669 3.26009C21.9769 2.26009 22.5069 1.26009 23.2169 0.260093L23.4969
            0.450096C23.5969 0.740096 23.3969 0.920079 23.2869 1.12008L20.9069 5.44009C19.6869 7.70009 18.4869 9.9701 17.4069 12.3001C17.3269 12.4801 17.2568 12.6701 17.1968 12.8201C17.2263 12.9106 17.2863 12.988 17.3666 13.0391C17.4469
            13.0902 17.5424 13.1117 17.6368 13.1001L21.7369 13.3501C24.5469 13.5001 27.3469 13.5701 30.1569 13.5701C30.4487 13.5364 30.7442 13.5602 31.0269 13.6401C31.0949 13.6834 31.1433 13.7514 31.162 13.8298C31.1807 13.9082
            31.1681 13.9908 31.1269 14.0601C30.7818 14.2009 30.4043 14.2424 30.0369 14.1801C28.7069 14.1801 27.3669 14.1801 26.0369 14.1801C23.2669 14.3001 20.4969 14.4601 17.7269 14.6001C17.6368 14.5889 17.5453 14.5994 17.46 14.6307C17.3748
            14.662 17.2983 14.7132 17.2369 14.7801C17.1369 15.0501 17.3468 15.2701 17.4568 15.5101C18.6868 18.1501 20.0568 20.7101 21.4568 23.2701L23.1469 26.3201C23.2969 26.5901 23.4269 26.8701 23.5469 27.1101C23.5308 27.1913
            23.4872 27.2645 23.4234 27.3173C23.3596 27.3701 23.2796 27.3994 23.1968 27.4001C22.8925 27.0451 22.6308 26.6558 22.4169 26.2401C20.6669 23.2901 18.8869 20.3701 16.9769 17.5201C16.5569 16.9001 16.1369 16.2801 15.7169
            15.6801C15.3769 15.6801 15.3069 15.9501 15.1769 16.1301C13.4469 18.6001 11.8469 21.1301 10.2769 23.7301L8.27686 27.0701C8.20686 27.1801 8.12689 27.2901 8.06689 27.3701C8.00689 27.4501 7.74688 27.3701 7.67688 27.1801C7.74434
            26.8501 7.88437 26.5393 8.08685 26.2701C9.84685 23.1768 11.5135 20.0368 13.0869 16.8501C13.4269 16.1801 13.7269 15.5001 14.0269 14.8501C13.9817 14.764 13.9119 14.6934 13.8264 14.6471C13.7409 14.6008 13.6436 14.5809
            13.5469 14.5901L9.02686 14.3201C6.32686 14.1601 3.61687 14.1301 0.91687 14.1101C0.605344 14.1694 0.282865 14.1162 0.00683594 13.9601V13.7001C0.166836 13.4801 0.386853 13.5201 0.586853 13.5101C1.88685 13.5101 3.18688
            13.5101 4.48688 13.4601C6.88688 13.4001 9.27688 13.3201 11.6769 13.1301C12.2169 13.1301 12.7669 13.0801 13.3169 13.0401C13.5527 13.0692 13.7918 13.0311 14.0068 12.9301C14.0968 12.7001 13.9469 12.5301 13.8569 12.3501C12.3769
            9.26342 10.8002 6.22677 9.12689 3.2401C8.70689 2.4901 8.29684 1.7401 7.88684 0.990104C7.78684 0.810104 7.64689 0.650107 7.68689 0.430107C7.72689 0.210107 7.87686 0.240082 8.09686 0.280082C9.28686 2.29008 10.5069 4.29009
            11.7369 6.29009C12.9669 8.29009 14.1869 10.2201 15.6669 12.2001ZM14.9468 14.2601C14.9468 14.6901 14.7069 14.9401 14.5569 15.2601C14.4069 15.5801 14.2269 15.8601 14.0569 16.1601L13.5768 17.0601L13.0469 18.0601L12.5669
            18.9701C12.3466 19.3138 12.197 19.6979 12.1269 20.1001C12.4669 19.6001 12.6869 19.3101 12.8769 19.0001C13.7069 17.6601 14.5169 16.3101 15.3469 15.0001C15.4269 14.8601 15.4968 14.6901 15.7668 14.7301L16.7668 16.3601C17.0868
            16.8901 17.3968 17.4201 17.7668 17.9401C18.0686 18.5027 18.4236 19.0351 18.8268 19.5301C18.9668 19.2401 18.8268 19.0901 18.6968 18.9201L16.4669 14.7601C16.3969 14.6201 16.2569 14.4801 16.3969 14.2701L23.2369 13.9901C22.0969
            13.8601 20.9469 13.8001 19.8069 13.7301C18.6669 13.6601 17.4968 13.7301 16.2668 13.6101C16.5411 12.9973 16.8482 12.3998 17.1869 11.8201C17.7369 10.8201 18.2868 9.7701 18.8268 8.7401C18.8508 8.71101 18.8682 8.67702 18.8777
            8.64056C18.8872 8.60409 18.8887 8.56599 18.882 8.52889C18.8754 8.49179 18.8607 8.45659 18.8391 8.42571C18.8175 8.39484 18.7894 8.36904 18.7568 8.35009C17.7568 9.98009 16.7568 11.6001 15.7568 13.2401C15.4368 13.0801
            15.3669 12.8001 15.2169 12.5801C15.0669 12.3601 14.9569 12.1801 14.8369 11.9701C14.7169 11.7601 14.5669 11.4901 14.4269 11.2601C14.2869 11.0301 14.1369 10.7901 13.9969 10.5601L13.5569 9.8601L13.1869 9.25008C13.0369
            9.02008 12.8969 8.78009 12.7369 8.57009C12.5981 8.28656 12.379 8.0501 12.1069 7.8901L12.5569 8.7701L14.8969 13.1101C14.9527 13.1928 14.9826 13.2903 14.9826 13.3901C14.9826 13.4899 14.9527 13.5874 14.8969 13.6701C12.6869
            13.6701 10.4468 13.8201 8.19684 13.9501C8.92684 14.0301 9.66685 14.0501 10.3969 14.0901L12.7568 14.2001C13.4881 14.1662 14.2209 14.1963 14.9468 14.2901V14.2601Z"
        fill="#FFD28D" />
</svg> 