<svg xmlns="http://www.w3.org/2000/svg" width="29" height="41" viewBox="0 0 29 41" fill="none">
<path d="M1.82581 20.0839L7.72307 14.1866C7.93491 13.9392 8.3072 13.9104 8.55457 14.1223C8.80194 14.3341 8.83078 14.7064 8.61889 14.9538C8.59912 14.9769 8.57763 14.9984 8.55457 15.0181L3.66574 19.9129H20.0831C20.4088 19.9129 20.6729 20.1769 20.6729 20.5026C20.6729 20.8284 20.4088 21.0924 20.0831 21.0924H3.66574L8.55457 25.9812C8.80194 26.193 8.83078 26.5653 8.61889 26.8127C8.40699 27.0601 8.03475 27.0889 7.78738 26.877C7.76432 26.8572 7.74278 26.8358 7.72307 26.8127L1.82575 20.9154C1.59714 20.6854 1.59714 20.314 1.82581 20.0839Z" fill="#FFD28D"></path>
</svg>