<svg xmlns="http://www.w3.org/2000/svg" width="29" height="41" viewBox="0 0 29 41" fill="none">
<path d="M20.5013 20.0839L14.6041 14.1866C14.3922 13.9392 14.0199 13.9104 13.7726 14.1223C13.5252 14.3341 13.4964 14.7064 13.7083 14.9538C13.728 14.9769 13.7495 14.9984 13.7726 15.0181L18.6614 19.9129H2.24401C1.91834 19.9129 1.6543 20.1769 1.6543 20.5026C1.6543 20.8284 1.91834 21.0924 2.24401 21.0924H18.6614L13.7726 25.9812C13.5252 26.193 13.4964 26.5653 13.7083 26.8127C13.9202 27.0601 14.2924 27.0889 14.5398 26.877C14.5628 26.8572 14.5844 26.8358 14.6041 26.8127L20.5014 20.9154C20.73 20.6854 20.73 20.314 20.5013 20.0839Z" fill="#FFD28D"></path>
</svg>